<?xml version="1.0" encoding="utf-8"?>
<!-- Generator: Adobe Illustrator 19.0.0, SVG Export Plug-In . SVG Version: 6.00 Build 0)  -->
<svg version="1.1" id="Calque_1" xmlns="http://www.w3.org/2000/svg" xmlns:xlink="http://www.w3.org/1999/xlink" x="0px" y="0px"
	 viewBox="0 0 1000 1000" style="enable-background:new 0 0 1000 1000;" xml:space="preserve">
<style type="text/css">
	.st0{fill:#FFFFFF;}
	.st1{stroke:#000000;stroke-width:145.692;stroke-linecap:round;stroke-miterlimit:10;}
</style>
<path id="XMLID_4_" class="st0" d="M-1341.6-1435.4c-8.8,8.8-18.3,17.2-26.1,26.8c-26.8,33.1-25.2,77.9,3.1,106.3
	c29.1,29.1,74.6,33.2,105.6,2.8c113.7-111.3,226.3-223.8,337.5-337.6c28.9-29.6,25.7-74.3-5.2-105.9
	c-86.3-88-174.1-174.3-261.3-261.4c-20.9-20.9-40.8-42.7-62.5-62.7c-36.3-33.5-80.9-33.6-112-1.7c-29.4,30.1-29.1,80.1,3.2,113
	c77.7,79,156.5,156.8,234.7,235.2c10.9,10.9,21.1,22.3,33.3,35.2C-1176.2-1600.6-1258.9-1518-1341.6-1435.4z M-943-1425.1
	c-16.4,16.7-35.2,42.7-33.4,62.6c2.3,25.5,19,60.9,39.5,70.5c22.8,10.6,67.3,7.9,84.3-8.1c115.6-109.1,227.3-222.4,338.4-336.2
	c30.2-30.9,27.8-72.7-4-105.4c-82.6-84.9-167.1-168-251.1-251.6c-23-22.8-47.4-44.2-70.2-67.2c-39.7-40.1-86.5-42.6-122.3-5.6
	c-26.5,27.4-21.2,78,13.2,112.7c81.2,81.9,163.1,163.3,244.6,244.9c5.4,5.4,10.4,11.3,22.7,24.9
	C-770.5-1595.9-857.8-1511.5-943-1425.1z"/>
<path id="XMLID_3_" d="M-1091.4-1685.3c-84.8,84.7-167.5,167.3-250.2,249.9c-8.8,8.8-18.3,17.2-26.1,26.8
	c-26.8,33.1-25.2,77.9,3.1,106.3c29.1,29.1,74.6,33.2,105.6,2.8c113.7-111.3,226.3-223.8,337.5-337.6c28.9-29.6,25.7-74.3-5.2-105.9
	c-86.3-88-174.1-174.3-261.3-261.4c-20.9-20.9-40.8-42.7-62.5-62.7c-36.3-33.5-80.9-33.6-112-1.7c-29.4,30.1-29.1,80.1,3.2,113
	c77.7,79,156.5,156.8,234.7,235.2C-1113.9-1709.6-1103.6-1698.2-1091.4-1685.3z"/>
<path id="XMLID_2_" d="M-681.3-1683.5c-89.2,87.6-176.5,171.9-261.7,258.4c-16.4,16.7-35.2,42.7-33.4,62.6
	c2.3,25.5,19,60.9,39.5,70.5c22.8,10.6,67.3,7.9,84.3-8.1c115.6-109.1,227.3-222.4,338.4-336.2c30.2-30.9,27.8-72.7-4-105.4
	c-82.6-84.9-167.1-168-251.1-251.6c-23-22.8-47.4-44.2-70.2-67.2c-39.7-40.1-86.5-42.6-122.3-5.6c-26.5,27.4-21.2,78,13.2,112.7
	c81.2,81.9,163.1,163.3,244.6,244.9C-698.6-1702.9-693.6-1697-681.3-1683.5z"/>
<path id="XMLID_11_" d="M-2030.5-593.5c84.7-84.8,167.3-167.5,249.9-250.2c8.8-8.8,17.2-18.3,26.8-26.1
	c33.1-26.8,77.9-25.2,106.3,3.1c29.1,29.1,33.2,74.6,2.8,105.6c-111.3,113.7-223.8,226.3-337.6,337.5
	c-29.6,28.9-74.3,25.7-105.9-5.2c-88-86.3-174.3-174.1-261.4-261.3c-20.9-20.9-42.7-40.8-62.7-62.5c-33.5-36.3-33.6-80.9-1.7-112
	c30.1-29.4,80.1-29.1,113,3.2c79,77.7,156.8,156.5,235.2,234.7C-2054.9-616-2043.4-605.7-2030.5-593.5z"/>
<line id="XMLID_16_" class="st1" x1="-346.5" y1="-2092.4" x2="323.9" y2="-2093"/>
<line id="XMLID_17_" class="st1" x1="-11" y1="-1757.2" x2="-11.7" y2="-2427.6"/>
<line id="XMLID_9_" class="st1" x1="-3264.3" y1="-1931.2" x2="-2801.3" y2="-1446.4"/>
<line id="XMLID_15_" class="st1" x1="-2803.7" y1="-1933.6" x2="-3261.9" y2="-1444.2"/>
<g id="XMLID_10_">
	<path id="XMLID_32_" d="M77.4,810c0-159.6,0-319.2,0-478.8c3-13.7,2.1-28,8-41.3c20-45.6,54.6-71.4,103.8-78.2
		c11-1.5,22-1.6,33-1.6c48.9,0,97.9-0.1,146.8,0c48.5,0.1,86.5,21.1,115.5,59.1c9.4,12.3,19.1,24.6,27.7,37.5
		c6.3,9.4,14,12.2,24.9,12.2c90.2-0.3,180.5-0.2,270.7-0.2c19.4,0,38.3,2.9,56.6,9.2c35.4,12.1,59.2,36,74.1,69.9
		c7.8,17.9,8.8,36.8,8.8,55.7c0.3,113.4-0.9,226.9,0.6,340.3c0.9,69.8-55.4,119.9-110.6,128.5c-8.1,1.3-16.3,1.9-24.5,1.9
		c-201.1,0-402.3-0.1-603.4,0c-36,0-67.4-11.7-93.5-35.9c-21.4-19.9-36.6-43.8-37.7-74.4C78.2,812.6,78.3,811.2,77.4,810z"/>
	<path id="XMLID_30_" class="st0" d="M511.1,811.7c-96.5,0-192.9,0-289.4,0c-6.2,0-12.4-0.4-18.5-1.7c-11.7-2.5-16.2-7.7-16.9-19.9
		c-0.2-3.1-0.1-6.2-0.1-9.3c0-141.5,0-282.9,0-424.4c0-5.4-0.1-10.8,0.7-16.1c2-13.4,6.8-17.5,20.4-17.6c19.8-0.2,39.6-0.1,59.4-0.1
		c32,0,63.9,0.3,95.9-0.1c14.6-0.2,25.3,5.1,33.8,17.1c16.1,22.5,33.2,44.4,49.6,66.7c12.5,17.1,28.9,25.1,50.1,25.1
		c102.7-0.2,205.4-0.1,308.1-0.1c28.8,0,34,5.1,34,34.3c0,103.5,0,207.1,0,310.6c0,28.4-7.2,35.4-35.9,35.4
		C705.2,811.7,608.1,811.7,511.1,811.7z"/>
</g>
</svg>
