<?xml version="1.0" encoding="utf-8"?>
<!-- Generator: Adobe Illustrator 19.0.0, SVG Export Plug-In . SVG Version: 6.00 Build 0)  -->
<svg version="1.1" id="Calque_1" xmlns="http://www.w3.org/2000/svg" xmlns:xlink="http://www.w3.org/1999/xlink" x="0px" y="0px"
	 viewBox="0 0 1000 1000" style="enable-background:new 0 0 1000 1000;" xml:space="preserve">
<style type="text/css">
	.st0{fill:#FFFFFF;}
</style>
<path id="XMLID_257_" class="st0" d="M85.6,767.6c-8.8,8.8-18.3,17.2-26.1,26.8c-26.8,33.1-25.2,77.9,3.1,106.3
	c29.1,29.1,74.6,33.2,105.6,2.8c113.7-111.3,226.3-223.8,337.5-337.6c28.9-29.6,25.7-74.3-5.2-105.9
	c-86.3-88-174.1-174.3-261.3-261.4c-20.9-20.9-40.8-42.7-62.5-62.7c-36.3-33.5-80.9-33.6-112-1.7c-29.4,30.1-29.1,80.1,3.2,113
	c77.7,79,156.5,156.8,234.7,235.2c10.9,10.9,21.1,22.3,33.3,35.2C251,602.4,168.3,685,85.6,767.6z M484.2,777.9
	c-16.4,16.7-35.2,42.7-33.4,62.6c2.3,25.5,19,60.9,39.5,70.5c22.8,10.6,67.3,7.9,84.3-8.1C690.3,793.8,801.9,680.5,913,566.7
	c30.2-30.9,27.8-72.7-4-105.4C826.4,376.4,742,293.3,658,209.7c-23-22.8-47.4-44.2-70.2-67.2C548,102.5,501.2,100,465.5,137
	c-26.5,27.4-21.2,78,13.2,112.7c81.2,81.9,163.1,163.3,244.6,244.9c5.4,5.4,10.4,11.3,22.7,24.9
	C656.7,607.1,569.4,691.4,484.2,777.9z"/>
<path id="XMLID_227_" d="M335.8,517.7C251,602.4,168.3,685,85.6,767.6c-8.8,8.8-18.3,17.2-26.1,26.8c-26.8,33.1-25.2,77.9,3.1,106.3
	c29.1,29.1,74.6,33.2,105.6,2.8c113.7-111.3,226.3-223.8,337.5-337.6c28.9-29.6,25.7-74.3-5.2-105.9
	c-86.3-88-174.1-174.3-261.3-261.4c-20.9-20.9-40.8-42.7-62.5-62.7c-36.3-33.5-80.9-33.6-112-1.7c-29.4,30.1-29.1,80.1,3.2,113
	c77.7,79,156.5,156.8,234.7,235.2C313.3,493.3,323.6,504.8,335.8,517.7z"/>
<path id="XMLID_226_" d="M745.9,519.5c-89.2,87.6-176.5,171.9-261.7,258.4c-16.4,16.7-35.2,42.7-33.4,62.6
	c2.3,25.5,19,60.9,39.5,70.5c22.8,10.6,67.3,7.9,84.3-8.1C690.3,793.8,801.9,680.5,913,566.7c30.2-30.9,27.8-72.7-4-105.4
	C826.4,376.4,742,293.3,658,209.7c-23-22.8-47.4-44.2-70.2-67.2C548,102.5,501.2,100,465.5,137c-26.5,27.4-21.2,78,13.2,112.7
	c81.2,81.9,163.1,163.3,244.6,244.9C728.6,500,733.6,505.9,745.9,519.5z"/>
</svg>
