<?xml version="1.0" encoding="utf-8"?>
<!-- Generator: Adobe Illustrator 19.0.0, SVG Export Plug-In . SVG Version: 6.00 Build 0)  -->
<svg version="1.1" id="Calque_1" xmlns="http://www.w3.org/2000/svg" xmlns:xlink="http://www.w3.org/1999/xlink" x="0px" y="0px"
	 viewBox="0 0 1000 1000" style="enable-background:new 0 0 1000 1000;" xml:space="preserve">
<style type="text/css">
	.st0{fill:#FFFFFF;}
</style>
<path id="XMLID_227_" d="M571.9,502.4c-103.1,103-203.6,203.4-304.2,303.8C257,817,245.5,827.2,236,838.8
	c-32.6,40.2-30.6,94.7,3.8,129.2c35.4,35.4,90.7,40.4,128.4,3.4C506.5,836.3,643.3,699.4,778.5,561c35.1-36,31.2-90.3-6.3-128.8
	c-104.9-107-211.7-211.9-317.7-317.8c-25.4-25.4-49.6-51.9-76-76.2c-44.1-40.7-98.4-40.9-136.2-2.1c-35.7,36.6-35.4,97.4,3.9,137.4
	c94.5,96,190.3,190.6,285.3,286C544.7,472.8,557.1,486.8,571.9,502.4z"/>
<path id="XMLID_4_" class="st0" d="M-1341.6-1435.4c-8.8,8.8-18.3,17.2-26.1,26.8c-26.8,33.1-25.2,77.9,3.1,106.3
	c29.1,29.1,74.6,33.2,105.6,2.8c113.7-111.3,226.3-223.8,337.5-337.6c28.9-29.6,25.7-74.3-5.2-105.9
	c-86.3-88-174.1-174.3-261.3-261.4c-20.9-20.9-40.8-42.7-62.5-62.7c-36.3-33.5-80.9-33.6-112-1.7c-29.4,30.1-29.1,80.1,3.2,113
	c77.7,79,156.5,156.8,234.7,235.2c10.9,10.9,21.1,22.3,33.3,35.2C-1176.2-1600.6-1258.9-1518-1341.6-1435.4z M-943-1425.1
	c-16.4,16.7-35.2,42.7-33.4,62.6c2.3,25.5,19,60.9,39.5,70.5c22.8,10.6,67.3,7.9,84.3-8.1c115.6-109.1,227.3-222.4,338.4-336.2
	c30.2-30.9,27.8-72.7-4-105.4c-82.6-84.9-167.1-168-251.1-251.6c-23-22.8-47.4-44.2-70.2-67.2c-39.7-40.1-86.5-42.6-122.3-5.6
	c-26.5,27.4-21.2,78,13.2,112.7c81.2,81.9,163.1,163.3,244.6,244.9c5.4,5.4,10.4,11.3,22.7,24.9
	C-770.5-1595.9-857.8-1511.5-943-1425.1z"/>
<path id="XMLID_3_" d="M-1091.4-1685.3c-84.8,84.7-167.5,167.3-250.2,249.9c-8.8,8.8-18.3,17.2-26.1,26.8
	c-26.8,33.1-25.2,77.9,3.1,106.3c29.1,29.1,74.6,33.2,105.6,2.8c113.7-111.3,226.3-223.8,337.5-337.6c28.9-29.6,25.7-74.3-5.2-105.9
	c-86.3-88-174.1-174.3-261.3-261.4c-20.9-20.9-40.8-42.7-62.5-62.7c-36.3-33.5-80.9-33.6-112-1.7c-29.4,30.1-29.1,80.1,3.2,113
	c77.7,79,156.5,156.8,234.7,235.2C-1113.9-1709.6-1103.6-1698.2-1091.4-1685.3z"/>
<path id="XMLID_2_" d="M-681.3-1683.5c-89.2,87.6-176.5,171.9-261.7,258.4c-16.4,16.7-35.2,42.7-33.4,62.6
	c2.3,25.5,19,60.9,39.5,70.5c22.8,10.6,67.3,7.9,84.3-8.1c115.6-109.1,227.3-222.4,338.4-336.2c30.2-30.9,27.8-72.7-4-105.4
	c-82.6-84.9-167.1-168-251.1-251.6c-23-22.8-47.4-44.2-70.2-67.2c-39.7-40.1-86.5-42.6-122.3-5.6c-26.5,27.4-21.2,78,13.2,112.7
	c81.2,81.9,163.1,163.3,244.6,244.9C-698.6-1702.9-693.6-1697-681.3-1683.5z"/>
</svg>
