<?xml version="1.0" encoding="utf-8"?>
<!-- Generator: Adobe Illustrator 19.0.0, SVG Export Plug-In . SVG Version: 6.00 Build 0)  -->
<svg version="1.1" id="Calque_1" xmlns="http://www.w3.org/2000/svg" xmlns:xlink="http://www.w3.org/1999/xlink" x="0px" y="0px"
	 viewBox="0 0 1000 1000" style="enable-background:new 0 0 1000 1000;" xml:space="preserve">
<style type="text/css">
	.st0{fill:#FFFFFF;}
	.st1{fill:none;stroke:#000000;stroke-width:145.692;stroke-linecap:round;stroke-miterlimit:10;}
	.st2{fill:none;stroke:#000000;stroke-width:47.0495;stroke-linecap:round;stroke-miterlimit:10;}
	.st3{stroke:#000000;stroke-width:178.6653;stroke-linecap:round;stroke-linejoin:round;stroke-miterlimit:10;}
	.st4{fill:#FFFFFF;stroke:#FFFFFF;stroke-width:100.4045;stroke-linecap:round;stroke-miterlimit:10;}
</style>
<path id="XMLID_4_" class="st0" d="M-1341.6-1435.4c-8.8,8.8-18.3,17.2-26.1,26.8c-26.8,33.1-25.2,77.9,3.1,106.3
	c29.1,29.1,74.6,33.2,105.6,2.8c113.7-111.3,226.3-223.8,337.5-337.6c28.9-29.6,25.7-74.3-5.2-105.9
	c-86.3-88-174.1-174.3-261.3-261.4c-20.9-20.9-40.8-42.7-62.5-62.7c-36.3-33.5-80.9-33.6-112-1.7c-29.4,30.1-29.1,80.1,3.2,113
	c77.7,79,156.5,156.8,234.7,235.2c10.9,10.9,21.1,22.3,33.3,35.2C-1176.2-1600.6-1258.9-1518-1341.6-1435.4z M-943-1425.1
	c-16.4,16.7-35.2,42.7-33.4,62.6c2.3,25.5,19,60.9,39.5,70.5c22.8,10.6,67.3,7.9,84.3-8.1c115.6-109.1,227.3-222.4,338.4-336.2
	c30.2-30.9,27.8-72.7-4-105.4c-82.6-84.9-167.1-168-251.1-251.6c-23-22.8-47.4-44.2-70.2-67.2c-39.7-40.1-86.5-42.6-122.3-5.6
	c-26.5,27.4-21.2,78,13.2,112.7c81.2,81.9,163.1,163.3,244.6,244.9c5.4,5.4,10.4,11.3,22.7,24.9
	C-770.5-1595.9-857.8-1511.5-943-1425.1z"/>
<path id="XMLID_3_" d="M-1091.4-1685.3c-84.8,84.7-167.5,167.3-250.2,249.9c-8.8,8.8-18.3,17.2-26.1,26.8
	c-26.8,33.1-25.2,77.9,3.1,106.3c29.1,29.1,74.6,33.2,105.6,2.8c113.7-111.3,226.3-223.8,337.5-337.6c28.9-29.6,25.7-74.3-5.2-105.9
	c-86.3-88-174.1-174.3-261.3-261.4c-20.9-20.9-40.8-42.7-62.5-62.7c-36.3-33.5-80.9-33.6-112-1.7c-29.4,30.1-29.1,80.1,3.2,113
	c77.7,79,156.5,156.8,234.7,235.2C-1113.9-1709.6-1103.6-1698.2-1091.4-1685.3z"/>
<path id="XMLID_2_" d="M-681.3-1683.5c-89.2,87.6-176.5,171.9-261.7,258.4c-16.4,16.7-35.2,42.7-33.4,62.6
	c2.3,25.5,19,60.9,39.5,70.5c22.8,10.6,67.3,7.9,84.3-8.1c115.6-109.1,227.3-222.4,338.4-336.2c30.2-30.9,27.8-72.7-4-105.4
	c-82.6-84.9-167.1-168-251.1-251.6c-23-22.8-47.4-44.2-70.2-67.2c-39.7-40.1-86.5-42.6-122.3-5.6c-26.5,27.4-21.2,78,13.2,112.7
	c81.2,81.9,163.1,163.3,244.6,244.9C-698.6-1702.9-693.6-1697-681.3-1683.5z"/>
<path id="XMLID_11_" d="M-2030.5-593.5c84.7-84.8,167.3-167.5,249.9-250.2c8.8-8.8,17.2-18.3,26.8-26.1
	c33.1-26.8,77.9-25.2,106.3,3.1c29.1,29.1,33.2,74.6,2.8,105.6c-111.3,113.7-223.8,226.3-337.6,337.5
	c-29.6,28.9-74.3,25.7-105.9-5.2c-88-86.3-174.3-174.1-261.4-261.3c-20.9-20.9-42.7-40.8-62.7-62.5c-33.5-36.3-33.6-80.9-1.7-112
	c30.1-29.4,80.1-29.1,113,3.2c79,77.7,156.8,156.5,235.2,234.7C-2054.9-616-2043.4-605.7-2030.5-593.5z"/>
<path id="XMLID_21_" d="M-1868,517c26.9-27,53.2-53.3,79.5-79.6c2.8-2.8,5.5-5.8,8.5-8.3c10.5-8.5,24.8-8,33.8,1
	c9.3,9.2,10.6,23.7,0.9,33.6c-35.4,36.2-71.2,72-107.5,107.4c-9.4,9.2-23.7,8.2-33.7-1.7c-28-27.5-55.5-55.4-83.2-83.2
	c-6.6-6.7-13.6-13-20-19.9c-10.6-11.6-10.7-25.8-0.5-35.7c9.6-9.3,25.5-9.3,36,1c25.1,24.7,49.9,49.8,74.9,74.7
	C-1875.8,509.9-1872.1,513.1-1868,517z"/>
<line id="XMLID_16_" class="st1" x1="-346.5" y1="-2092.4" x2="323.9" y2="-2093"/>
<line id="XMLID_17_" class="st1" x1="-11" y1="-1757.2" x2="-11.7" y2="-2427.6"/>
<line id="XMLID_22_" class="st2" x1="-1870" y1="498.1" x2="-1870.2" y2="291.7"/>
<line id="XMLID_9_" class="st1" x1="-3264.3" y1="-1931.2" x2="-2801.3" y2="-1446.4"/>
<line id="XMLID_15_" class="st1" x1="-2803.7" y1="-1933.6" x2="-3261.9" y2="-1444.2"/>
<g id="XMLID_10_">
	<path id="XMLID_32_" d="M-2393.1,1017.4c0-132.9,0-265.7,0-398.6c2.5-11.4,1.8-23.3,6.6-34.4c16.7-37.9,45.4-59.5,86.4-65.1
		c9.2-1.3,18.3-1.3,27.5-1.3c40.7,0,81.5-0.1,122.2,0c40.4,0.1,72,17.6,96.2,49.2c7.9,10.3,15.9,20.5,23,31.3
		c5.2,7.9,11.6,10.2,20.7,10.2c75.1-0.3,150.3-0.1,225.4-0.2c16.1,0,31.8,2.4,47.2,7.7c29.4,10.1,49.3,30,61.7,58.2
		c6.5,14.9,7.3,30.7,7.4,46.3c0.3,94.4-0.8,188.9,0.5,283.3c0.8,58.1-46.1,99.8-92.1,107c-6.8,1.1-13.5,1.6-20.4,1.6
		c-167.5,0-334.9-0.1-502.4,0c-29.9,0-56.1-9.8-77.8-29.9c-17.8-16.5-30.5-36.5-31.4-61.9
		C-2392.4,1019.6-2392.3,1018.4-2393.1,1017.4z"/>
	<path id="XMLID_30_" class="st0" d="M-2032,1018.8c-80.3,0-160.6,0-240.9,0c-5.2,0-10.3-0.3-15.4-1.4c-9.8-2.1-13.5-6.4-14.1-16.5
		c-0.1-2.6-0.1-5.2-0.1-7.8c0-117.8,0-235.5,0-353.3c0-4.5,0-9,0.6-13.4c1.7-11.1,5.7-14.6,16.9-14.7c16.5-0.2,33-0.1,49.5-0.1
		c26.6,0,53.2,0.2,79.8-0.1c12.1-0.2,21,4.3,28.1,14.2c13.4,18.8,27.7,36.9,41.3,55.6c10.4,14.2,24,20.9,41.7,20.9
		c85.5-0.2,171-0.1,256.5-0.1c24,0,28.3,4.3,28.3,28.5c0,86.2,0,172.4,0,258.6c0,23.6-6,29.5-29.9,29.5
		C-1870.4,1018.8-1951.2,1018.8-2032,1018.8z"/>
</g>
<g id="XMLID_14_">
	<path id="XMLID_19_" d="M-800.4,290.3c0-132.9,0-265.7,0-398.6c2.5-11.4,1.8-23.3,6.6-34.4c16.7-37.9,45.4-59.5,86.4-65.1
		c9.2-1.3,18.3-1.3,27.5-1.3c40.7,0,81.5-0.1,122.2,0c40.4,0.1,72,17.6,96.2,49.2c7.9,10.3,15.9,20.5,23,31.3
		c5.2,7.9,11.6,10.2,20.7,10.2c75.1-0.3,150.3-0.1,225.4-0.2c16.1,0,31.8,2.4,47.2,7.7c29.4,10.1,49.3,30,61.7,58.2
		C-77-37.8-76.2-22-76.1-6.4c0.3,94.4-0.8,188.9,0.5,283.3c0.8,58.1-46.1,99.8-92.1,107c-6.8,1.1-13.5,1.6-20.4,1.6
		c-167.5,0-334.9-0.1-502.4,0c-29.9,0-56.1-9.8-77.8-29.9c-17.8-16.5-30.5-36.5-31.4-61.9C-799.7,292.5-799.6,291.3-800.4,290.3z"/>
	<path id="XMLID_18_" class="st0" d="M-439.3,291.7c-80.3,0-160.6,0-240.9,0c-5.2,0-10.3-0.3-15.4-1.4c-9.8-2.1-13.5-6.4-14.1-16.5
		c-0.1-2.6-0.1-5.2-0.1-7.8c0-117.8,0-235.5,0-353.3c0-4.5,0-9,0.6-13.4c1.7-11.1,5.7-14.6,16.9-14.7c16.5-0.2,33-0.1,49.5-0.1
		c26.6,0,53.2,0.2,79.8-0.1c12.1-0.2,21,4.3,28.1,14.2c13.4,18.8,27.7,36.9,41.3,55.6c10.4,14.2,24,20.9,41.7,20.9
		c85.5-0.2,171-0.1,256.5-0.1c24,0,28.3,4.3,28.3,28.5c0,86.2,0,172.4,0,258.6c0,23.6-6,29.5-29.9,29.5
		C-277.8,291.7-358.6,291.7-439.3,291.7z"/>
</g>
<polygon id="XMLID_20_" class="st3" points="867.2,495.2 536,686.4 204.7,877.7 204.7,495.2 204.7,112.8 536,304 "/>
<polygon id="XMLID_24_" class="st4" points="689.2,496.3 503,603.7 316.8,711.2 316.8,496.3 316.8,281.3 503,388.8 "/>
</svg>
