<?xml version="1.0" encoding="utf-8"?>
<!-- Generator: Adobe Illustrator 19.0.0, SVG Export Plug-In . SVG Version: 6.00 Build 0)  -->
<svg version="1.1" id="Calque_1" xmlns="http://www.w3.org/2000/svg" xmlns:xlink="http://www.w3.org/1999/xlink" x="0px" y="0px"
	 viewBox="0 0 1000 1000" style="enable-background:new 0 0 1000 1000;" xml:space="preserve">
<style type="text/css">
	.st0{fill:#FFFFFF;}
</style>
<path id="XMLID_257_" class="st0" d="M638.8,517.7c12.2-12.9,22.5-24.4,33.3-35.2c78.2-78.4,157-156.3,234.7-235.2
	c32.3-32.8,32.5-82.8,3.2-113c-31.1-31.9-75.7-31.8-112,1.7c-21.7,20-41.6,41.8-62.5,62.7c-87.2,87-175.1,173.4-261.3,261.4
	c-31,31.6-34.2,76.3-5.2,105.9c111.2,113.8,223.7,226.3,337.5,337.6c31,30.4,76.5,26.3,105.6-2.8c28.4-28.4,30-73.2,3.1-106.3
	c-7.8-9.6-17.3-18-26.1-26.8C806.4,685,723.6,602.4,638.8,517.7z M228.7,519.5c12.4-13.6,17.3-19.5,22.7-24.9
	C333,413,414.8,331.7,496,249.7c34.4-34.7,39.6-85.3,13.2-112.7c-35.8-37-82.5-34.5-122.3,5.6c-22.8,23-47.3,44.3-70.2,67.2
	c-84,83.6-168.4,166.7-251.1,251.6c-31.8,32.7-34.2,74.5-4,105.4C172.7,680.5,284.3,793.8,400,902.9c17,16,61.6,18.7,84.3,8.1
	c20.5-9.5,37.2-45,39.5-70.5c1.8-19.9-17-46-33.4-62.6C405.3,691.4,317.9,607.1,228.7,519.5z"/>
<path id="XMLID_227_" d="M638.8,517.7c84.8,84.7,167.5,167.3,250.2,249.9c8.8,8.8,18.3,17.2,26.1,26.8
	c26.8,33.1,25.2,77.9-3.1,106.3c-29.1,29.1-74.6,33.2-105.6,2.8C692.7,792.3,580.2,679.7,468.9,565.9
	c-28.9-29.6-25.7-74.3,5.2-105.9c86.3-88,174.1-174.3,261.3-261.4c20.9-20.9,40.8-42.7,62.5-62.7c36.3-33.5,80.9-33.6,112-1.7
	c29.4,30.1,29.1,80.1-3.2,113c-77.7,79-156.5,156.8-234.7,235.2C661.3,493.3,651,504.8,638.8,517.7z"/>
<path id="XMLID_226_" d="M228.7,519.5c89.2,87.6,176.5,171.9,261.7,258.4c16.4,16.7,35.2,42.7,33.4,62.6
	c-2.3,25.5-19,60.9-39.5,70.5c-22.8,10.6-67.3,7.9-84.3-8.1C284.3,793.8,172.7,680.5,61.6,566.7c-30.2-30.9-27.8-72.7,4-105.4
	c82.6-84.9,167.1-168,251.1-251.6c23-22.8,47.4-44.2,70.2-67.2c39.7-40.1,86.5-42.6,122.3-5.6c26.5,27.4,21.2,78-13.2,112.7
	C414.8,331.7,333,413,251.4,494.6C246,500,241.1,505.9,228.7,519.5z"/>
</svg>
