<?xml version="1.0" encoding="utf-8"?>
<!-- Generator: Adobe Illustrator 19.0.0, SVG Export Plug-In . SVG Version: 6.00 Build 0)  -->
<svg version="1.1" id="Calque_1" xmlns="http://www.w3.org/2000/svg" xmlns:xlink="http://www.w3.org/1999/xlink" x="0px" y="0px"
	 viewBox="0 0 1000 1000" style="enable-background:new 0 0 1000 1000;" xml:space="preserve">
<style type="text/css">
	.st0{fill:#FFFFFF;}
	.st1{stroke:#000000;stroke-width:145.692;stroke-linecap:round;stroke-miterlimit:10;}
	.st2{stroke:#000000;stroke-width:129.3559;stroke-linecap:round;stroke-miterlimit:10;}
	.st3{stroke:#000000;stroke-width:47.0495;stroke-linecap:round;stroke-miterlimit:10;}
	.st4{stroke:#000000;stroke-width:82.7498;stroke-linecap:round;stroke-linejoin:round;stroke-miterlimit:10;}
	.st5{fill:#FFFFFF;stroke:#FFFFFF;stroke-width:44.2974;stroke-linecap:round;stroke-miterlimit:10;}
	.st6{stroke:#000000;stroke-width:63.1635;stroke-miterlimit:10;}
	.st7{fill:#010202;stroke:#000000;stroke-width:40;stroke-linecap:round;stroke-linejoin:round;stroke-miterlimit:10;}
	.st8{fill:none;stroke:#000000;stroke-width:110;stroke-linecap:round;stroke-miterlimit:10;}
	.st9{stroke:#000000;stroke-width:42.4826;stroke-miterlimit:10;}
	.st10{fill:none;stroke:#000000;stroke-width:0.2698;stroke-miterlimit:10;}
	.st11{stroke:#000000;stroke-width:46.4089;stroke-linecap:round;stroke-linejoin:round;stroke-miterlimit:10;}
	.st12{stroke:#000000;stroke-width:116.3961;stroke-linecap:round;stroke-miterlimit:10;}
	.st13{fill:#FFFFFF;stroke:#FFFFFF;stroke-width:78.843;stroke-linecap:round;stroke-miterlimit:10;}
	.st14{stroke:#000000;stroke-width:72.846;stroke-linecap:round;stroke-miterlimit:10;}
</style>
<path id="XMLID_4_" class="st0" d="M-1341.6-1435.4c-8.8,8.8-18.3,17.2-26.1,26.8c-26.8,33.1-25.2,77.9,3.1,106.3
	c29.1,29.1,74.6,33.2,105.6,2.8c113.7-111.3,226.3-223.8,337.5-337.6c28.9-29.6,25.7-74.3-5.2-105.9
	c-86.3-88-174.1-174.3-261.3-261.4c-20.9-20.9-40.8-42.7-62.5-62.7c-36.3-33.5-80.9-33.6-112-1.7c-29.4,30.1-29.1,80.1,3.2,113
	c77.7,79,156.5,156.8,234.7,235.2c10.9,10.9,21.1,22.3,33.3,35.2C-1176.2-1600.6-1258.9-1518-1341.6-1435.4z M-943-1425.1
	c-16.4,16.7-35.2,42.7-33.4,62.6c2.3,25.5,19,60.9,39.5,70.5c22.8,10.6,67.3,7.9,84.3-8.1c115.6-109.1,227.3-222.4,338.4-336.2
	c30.2-30.9,27.8-72.7-4-105.4c-82.6-84.9-167.1-168-251.1-251.6c-23-22.8-47.4-44.2-70.2-67.2c-39.7-40.1-86.5-42.6-122.3-5.6
	c-26.5,27.4-21.2,78,13.2,112.7c81.2,81.9,163.1,163.3,244.6,244.9c5.4,5.4,10.4,11.3,22.7,24.9
	C-770.5-1595.9-857.8-1511.5-943-1425.1z"/>
<path id="XMLID_3_" d="M-1091.4-1685.3c-84.8,84.7-167.5,167.3-250.2,249.9c-8.8,8.8-18.3,17.2-26.1,26.8
	c-26.8,33.1-25.2,77.9,3.1,106.3c29.1,29.1,74.6,33.2,105.6,2.8c113.7-111.3,226.3-223.8,337.5-337.6c28.9-29.6,25.7-74.3-5.2-105.9
	c-86.3-88-174.1-174.3-261.3-261.4c-20.9-20.9-40.8-42.7-62.5-62.7c-36.3-33.5-80.9-33.6-112-1.7c-29.4,30.1-29.1,80.1,3.2,113
	c77.7,79,156.5,156.8,234.7,235.2C-1113.9-1709.6-1103.6-1698.2-1091.4-1685.3z"/>
<path id="XMLID_2_" d="M-681.3-1683.5c-89.2,87.6-176.5,171.9-261.7,258.4c-16.4,16.7-35.2,42.7-33.4,62.6
	c2.3,25.5,19,60.9,39.5,70.5c22.8,10.6,67.3,7.9,84.3-8.1c115.6-109.1,227.3-222.4,338.4-336.2c30.2-30.9,27.8-72.7-4-105.4
	c-82.6-84.9-167.1-168-251.1-251.6c-23-22.8-47.4-44.2-70.2-67.2c-39.7-40.1-86.5-42.6-122.3-5.6c-26.5,27.4-21.2,78,13.2,112.7
	c81.2,81.9,163.1,163.3,244.6,244.9C-698.6-1702.9-693.6-1697-681.3-1683.5z"/>
<path id="XMLID_11_" d="M-2030.5-593.5c84.7-84.8,167.3-167.5,249.9-250.2c8.8-8.8,17.2-18.3,26.8-26.1
	c33.1-26.8,77.9-25.2,106.3,3.1c29.1,29.1,33.2,74.6,2.8,105.6c-111.3,113.7-223.8,226.3-337.6,337.5
	c-29.6,28.9-74.3,25.7-105.9-5.2c-88-86.3-174.3-174.1-261.4-261.3c-20.9-20.9-42.7-40.8-62.7-62.5c-33.5-36.3-33.6-80.9-1.7-112
	c30.1-29.4,80.1-29.1,113,3.2c79,77.7,156.8,156.5,235.2,234.7C-2054.9-616-2043.4-605.7-2030.5-593.5z"/>
<path id="XMLID_21_" d="M-1868,517c26.9-27,53.2-53.3,79.5-79.6c2.8-2.8,5.5-5.8,8.5-8.3c10.5-8.5,24.8-8,33.8,1
	c9.3,9.2,10.6,23.7,0.9,33.6c-35.4,36.2-71.2,72-107.5,107.4c-9.4,9.2-23.7,8.2-33.7-1.7c-28-27.5-55.5-55.4-83.2-83.2
	c-6.6-6.7-13.6-13-20-19.9c-10.6-11.6-10.7-25.8-0.5-35.7c9.6-9.3,25.5-9.3,36,1c25.1,24.7,49.9,49.8,74.9,74.7
	C-1875.8,509.9-1872.1,513.1-1868,517z"/>
<line id="XMLID_16_" class="st1" x1="-346.5" y1="-2092.4" x2="323.9" y2="-2093"/>
<line id="XMLID_17_" class="st1" x1="-11" y1="-1757.2" x2="-11.7" y2="-2427.6"/>
<line id="XMLID_53_" class="st2" x1="2015.3" y1="825.2" x2="2248.7" y2="455.8"/>
<line id="XMLID_22_" class="st3" x1="-1870" y1="498.1" x2="-1870.2" y2="291.7"/>
<line id="XMLID_9_" class="st1" x1="-3264.3" y1="-1931.2" x2="-2801.3" y2="-1446.4"/>
<line id="XMLID_15_" class="st1" x1="-2803.7" y1="-1933.6" x2="-3261.9" y2="-1444.2"/>
<g id="XMLID_10_">
	<path id="XMLID_32_" d="M-2393.1,1017.4c0-132.9,0-265.7,0-398.6c2.5-11.4,1.8-23.3,6.6-34.4c16.7-37.9,45.4-59.5,86.4-65.1
		c9.2-1.3,18.3-1.3,27.5-1.3c40.7,0,81.5-0.1,122.2,0c40.4,0.1,72,17.6,96.2,49.2c7.9,10.3,15.9,20.5,23,31.3
		c5.2,7.9,11.6,10.2,20.7,10.2c75.1-0.3,150.3-0.1,225.4-0.2c16.1,0,31.8,2.4,47.2,7.7c29.4,10.1,49.3,30,61.7,58.2
		c6.5,14.9,7.3,30.7,7.4,46.3c0.3,94.4-0.8,188.9,0.5,283.3c0.8,58.1-46.1,99.8-92.1,107c-6.8,1.1-13.5,1.6-20.4,1.6
		c-167.5,0-334.9-0.1-502.4,0c-29.9,0-56.1-9.8-77.8-29.9c-17.8-16.5-30.5-36.5-31.4-61.9
		C-2392.4,1019.6-2392.3,1018.4-2393.1,1017.4z"/>
	<path id="XMLID_30_" class="st0" d="M-2032,1018.8c-80.3,0-160.6,0-240.9,0c-5.2,0-10.3-0.3-15.4-1.4c-9.8-2.1-13.5-6.4-14.1-16.5
		c-0.1-2.6-0.1-5.2-0.1-7.8c0-117.8,0-235.5,0-353.3c0-4.5,0-9,0.6-13.4c1.7-11.1,5.7-14.6,16.9-14.7c16.5-0.2,33-0.1,49.5-0.1
		c26.6,0,53.2,0.2,79.8-0.1c12.1-0.2,21,4.3,28.1,14.2c13.4,18.8,27.7,36.9,41.3,55.6c10.4,14.2,24,20.9,41.7,20.9
		c85.5-0.2,171-0.1,256.5-0.1c24,0,28.3,4.3,28.3,28.5c0,86.2,0,172.4,0,258.6c0,23.6-6,29.5-29.9,29.5
		C-1870.4,1018.8-1951.2,1018.8-2032,1018.8z"/>
</g>
<g id="XMLID_14_">
	<path id="XMLID_19_" d="M-1263.9-267c0-132.9,0-265.7,0-398.6c2.5-11.4,1.8-23.3,6.6-34.4c16.7-37.9,45.4-59.5,86.4-65.1
		c9.2-1.3,18.3-1.3,27.5-1.3c40.7,0,81.5-0.1,122.2,0c40.4,0.1,72,17.6,96.2,49.2c7.9,10.3,15.9,20.5,23,31.3
		c5.2,7.9,11.6,10.2,20.7,10.2c75.1-0.3,150.3-0.1,225.4-0.2c16.1,0,31.8,2.4,47.2,7.7c29.4,10.1,49.3,30,61.7,58.2
		c6.5,14.9,7.3,30.7,7.4,46.3c0.3,94.4-0.8,188.9,0.5,283.3c0.8,58.1-46.1,99.8-92.1,107c-6.8,1.1-13.5,1.6-20.4,1.6
		c-167.5,0-334.9-0.1-502.4,0c-29.9,0-56.1-9.8-77.8-29.9c-17.8-16.5-30.5-36.5-31.4-61.9C-1263.3-264.8-1263.2-266-1263.9-267z"/>
	<path id="XMLID_18_" class="st0" d="M-902.9-265.6c-80.3,0-160.6,0-240.9,0c-5.2,0-10.3-0.3-15.4-1.4c-9.8-2.1-13.5-6.4-14.1-16.5
		c-0.1-2.6-0.1-5.2-0.1-7.8c0-117.8,0-235.5,0-353.3c0-4.5,0-9,0.6-13.4c1.7-11.1,5.7-14.6,16.9-14.7c16.5-0.2,33-0.1,49.5-0.1
		c26.6,0,53.2,0.2,79.8-0.1c12.1-0.2,21,4.2,28.1,14.2c13.4,18.8,27.7,36.9,41.3,55.6c10.4,14.2,24,20.9,41.7,20.9
		c85.5-0.2,171-0.1,256.5-0.1c24,0,28.3,4.3,28.3,28.5c0,86.2,0,172.4,0,258.6c0,23.6-6,29.5-29.9,29.5
		C-741.3-265.6-822.1-265.6-902.9-265.6z"/>
</g>
<polygon id="XMLID_20_" class="st4" points="834.1,-1135.4 680.7,-1046.8 527.3,-958.3 527.3,-1135.4 527.3,-1312.6 680.7,-1224 "/>
<polygon id="XMLID_24_" class="st5" points="741,-1135.9 658.9,-1088.4 576.7,-1041 576.7,-1135.9 576.7,-1230.7 658.9,-1183.3 "/>
<g id="XMLID_25_">
	<path id="XMLID_52_" class="st6" d="M6334.1-3201c0.7-29,5.4-57.3,12.3-85.4c4.9-20.2,12.5-39,21.9-57.2
		c6.5-12.6,13.5-25,21.4-36.8c9-13.5,19.1-26.4,29.1-39.3c3.4-4.4,8.1-7.6,12-11.6c22.2-22.9,47.7-41.5,75.8-56.3
		c23.6-12.4,48-23.4,74.3-28.9c25.2-5.3,50.5-9.6,76.3-9.6c24.6,0,48.7,3.4,72.8,7.8c23.3,4.3,44.6,13.4,66.2,22.4
		c19.8,8.3,37.8,19.8,54.9,32.2c14.8,10.7,28.1,23.7,41.3,36.4c9.5,9.1,18.3,19.1,26.3,29.5c7.9,10.3,14.9,21.4,21.6,32.5
		c12.3,20.7,22.7,42.4,29.4,65.5c7.1,24.6,12.5,49.7,14.3,75.5c2.3,33-0.3,65.5-8.2,97.5c-1.9,7.6-4.6,16-9.5,21.7
		c-9.1,10.4-25.6,11.4-38.6,4.6c-8.9-4.6-17.4-19.4-14.2-32.1c6.1-24.2,10-48.7,9.2-73.8c-0.7-22.5-3.4-44.6-10.3-66.1
		c-5.6-17.5-11.2-35-20.3-51.2c-14.2-25.3-30.9-48.5-52.4-68c-11.4-10.4-23-21.2-36.1-29c-18.3-10.9-36.9-21.6-57.8-28.2
		c-30.4-9.7-60.9-15.6-92.8-14.8c-26.3,0.7-52,5-76.6,14.4c-13.1,5-26.3,10-38.9,16c-18.3,8.8-35.2,20.5-50.1,34
		c-14,12.7-26.3,27.5-38.3,42.3c-13.6,16.7-24.1,35.6-32,55.7c-9,22.8-16,46.2-18.7,70.7c-4,36.5-1.6,72.7,11.2,107.3
		c8.3,22.7,18.7,44.6,28.4,66.8c7.7,17.6,16.6,34.8,23.8,52.6c17.9,44.3,35.6,88.8,46.4,135.5c4.1,17.7,6.1,36,7.9,54.1
		c2.1,21.6,7,42.2,14.4,62.7c5.9,16.4,15.6,30,26.5,42.2c9.9,11.1,21.8,21,36.4,27.3c16.9,7.3,33.9,13.3,52.3,14.9
		c25.5,2.3,49.6-2.5,73.2-12.7c15.9-6.8,29.4-16.6,41.1-28.3c11.3-11.2,22.5-23.3,27.8-39.1c4.1-12.3,9.2-24.4,12.4-36.9
		c4.1-15.8,2.8-32.1,1.1-48.3c-1.3-12.7,4.8-22.8,15.2-29.3c11.4-7.1,23.8-6.3,34.4,2c9.1,7.1,11.9,17.7,13.1,29.1
		c3.3,29.4-0.9,58-9.3,85.9c-3.9,12.9-11.1,24.9-17.1,37.1c-2.4,5-5,10.1-8.4,14.4c-10.5,13-20.8,26.1-33.4,37.3
		c-19.8,17.6-41.9,31.4-66.7,39.8c-41.7,14.2-84.2,15.4-127.3,4.4c-24-6.2-45.2-17.3-64.9-31.3c-13.9-9.8-26-22.2-36.5-36
		c-21.1-27.7-35.3-58.3-41-92.6c-3.2-19.4-4.8-39-7.9-58.5c-1.8-11.6-5-23.1-7.6-34.6c-5.1-22.2-12.1-43.8-20.8-64.9
		c-8.4-20.5-16.4-41.1-25.3-61.3c-13.1-29.9-27.1-59.4-40.2-89.4c-11.3-26-16.8-53.7-20.7-81.7
		C6335.4-3174.9,6335.1-3188,6334.1-3201z"/>
</g>
<g id="XMLID_26_">
	<g id="XMLID_44_">
		<g id="XMLID_45_">
			<path id="XMLID_46_" class="st7" d="M4450.1-250.7c71.1,0,128.8-57.7,128.8-128.8c0,0,0-0.1,0-0.1h0v-417.9h413.7v298.4
				c-14.8-5.9-30.9-9.2-47.9-9.2c-71.1,0-128.8,57.7-128.8,128.8s57.7,128.8,128.8,128.8s128.8-57.7,128.8-128.8c0,0,0-0.1,0-0.1h0
				v-417.9v-161.9h-80.9h-413.7h-81v161.9v298.4c-14.8-5.9-30.9-9.2-47.9-9.2c-71.1,0-128.8,57.7-128.8,128.8
				S4379-250.7,4450.1-250.7z"/>
		</g>
	</g>
	<g id="XMLID_43_">
	</g>
	<g id="XMLID_42_">
	</g>
	<g id="XMLID_41_">
	</g>
	<g id="XMLID_40_">
	</g>
	<g id="XMLID_39_">
	</g>
	<g id="XMLID_38_">
	</g>
	<g id="XMLID_37_">
	</g>
	<g id="XMLID_36_">
	</g>
	<g id="XMLID_35_">
	</g>
	<g id="XMLID_34_">
	</g>
	<g id="XMLID_33_">
	</g>
	<g id="XMLID_31_">
	</g>
	<g id="XMLID_29_">
	</g>
	<g id="XMLID_28_">
	</g>
	<g id="XMLID_27_">
	</g>
</g>
<circle id="XMLID_47_" class="st8" cx="642.7" cy="-1135.9" r="411.1"/>
<g id="XMLID_49_">
	<path id="XMLID_73_" class="st9" d="M1496.1-1152.5c4.6-24.4,7.3-49.5,14-73.2c46.3-165.5,145.2-262.9,295.5-292.6
		c164.1-32.4,367.9,87.2,407.4,335c2.5,15.7,3.6,31.8,3.7,47.7c0.4,59.3,0.2,118.6,0.1,177.9c0,24.3-11.7,38.9-32.7,41.3
		c-18.4,2.1-34.4-12-37.9-33.7c-1.1-6.8-1.7-13.7-1.8-20.6c-0.2-49.1,0.4-98.3-0.2-147.4c-2-174.8-119.2-311.5-272.5-320.7
		c-145.6-8.7-274.6,105.1-298.6,271.2c-2.4,16.3-3.5,32.9-3.7,49.4c-0.5,50.7-0.1,101.5-0.2,152.2c0,28.8-8.5,43-28.2,48.1
		c-20.1,5.2-34.7-4.4-44.9-29.4C1496.1-1015.7,1496.1-1084.1,1496.1-1152.5z"/>
</g>
<polyline id="XMLID_56_" class="st10" points="1960.9,-558.5 1960.9,-646.7 1960.9,-916.2 1960.9,-974.3 "/>
<circle id="XMLID_48_" class="st11" cx="1538.3" cy="-901" r="134.6"/>
<circle id="XMLID_51_" class="st11" cx="2184" cy="-901" r="134.6"/>
<circle id="XMLID_50_" class="st12" cx="2359.7" cy="283" r="262.3"/>
<circle id="XMLID_55_" class="st13" cx="2359.7" cy="279.5" r="177.7"/>
<line id="XMLID_58_" class="st14" x1="2192.1" y1="279.6" x2="2527.3" y2="279.3"/>
<line id="XMLID_57_" class="st14" x1="2359.8" y1="447.2" x2="2359.5" y2="112"/>
<path id="XMLID_54_" d="M864.5,729.3H134.5c-40.3,0-73.3-33-73.3-73.3V239.4c0-40.3,33-73.3,73.3-73.3h730.1
	c40.3,0,73.3,33,73.3,73.3V656C937.9,696.3,904.9,729.3,864.5,729.3z"/>
<rect id="XMLID_60_" x="189.1" y="282.4" class="st0" width="623.3" height="322.5"/>
<polygon id="XMLID_61_" points="220.7,676.7 220.7,895.6 552.6,676.7 "/>
</svg>
