<?xml version="1.0" encoding="utf-8"?>
<!-- Generator: Adobe Illustrator 19.0.0, SVG Export Plug-In . SVG Version: 6.00 Build 0)  -->
<svg version="1.1" id="Calque_1" xmlns="http://www.w3.org/2000/svg" xmlns:xlink="http://www.w3.org/1999/xlink" x="0px" y="0px"
	 viewBox="0 0 841.9 1190.6" style="enable-background:new 0 0 841.9 1190.6;" xml:space="preserve">
<g id="XMLID_4_">
	<path id="XMLID_58_" d="M122.6,561.3c1.3-5.1,2.4-10.3,3.8-15.4c4.9-17.9,14.4-33.3,26.5-47c9.2-10.4,19.1-20.4,29.5-29.6
		c13.1-11.5,28.7-19.1,44.9-25.5c22-8.7,44.9-13.4,68.3-15.9c4-0.4,8-0.3,11.9-1c1.3-0.2,3.4-1.8,3.5-2.9
		c2.4-28.8,21.2-44.9,44.6-56.9c32-16.4,66.4-19.6,101.7-16.3c24.7,2.3,48.1,8.8,69.2,22.4c15.8,10.2,28.4,23.1,32.6,42.3
		c0.2,1,0.5,1.9,0.6,2.9c1.1,8.5,1.1,8.3,9.5,8.9c35.6,2.6,69.7,11,101,28.7c18.3,10.4,33.3,24.6,46.8,40.8
		c9,10.8,16.9,22.2,22.9,34.9c12.8,27.4,11.1,53.9-5.1,79.4c-13.1,20.6-29.9,37.4-51.3,49.1c-24.5,13.4-49.6,13.4-74.2,0.8
		c-11.3-5.8-21.5-13.8-32.2-20.8c-0.9-0.6-1.9-1.1-3.6-2.2c0.5,8.2,0.8,15.6,1.3,23c1.7,25.3-2.2,49.8-9.5,73.9
		c-10.4,34.5-27.4,65.6-48.3,94.7c-19.5,27.2-42.1,51.5-66.8,73.9c-1.4,1.2-2.8,2.4-4.2,3.5c-7.3,5.7-13.4,6.2-20.3,0
		c-11.3-10.3-22.4-20.9-33.1-31.8c-23.3-23.8-43.2-50.2-59.6-79.1c-21.9-38.5-36.3-79.2-36.7-124c-0.1-9.5,1-18.9,1.5-28.4
		c0.1-1.6,0-3.2,0-5.7c-5.9,4.4-11.1,8.4-16.5,12.1c-14.8,10.3-30.7,18.1-49,19.8c-22,2-41.3-5.5-58.5-18.7
		c-15.3-11.7-28.5-25.4-38.5-42c-5.8-9.6-9.6-20.1-11.3-31.2c-0.2-1.6-0.8-3.1-1.2-4.7C122.6,569.3,122.6,565.3,122.6,561.3z
		 M325.5,454.3c-21.7,0.2-43.3,2.6-64.3,8.2c-25.7,6.8-49.6,17.2-69.2,36.1c-14,13.5-26.7,28-34.8,45.8c-8.2,18.1-7.7,35.9,3.7,52.7
		c8.8,12.9,19.7,23.8,32.2,33.1c14.6,10.8,30.7,14.9,48.5,8.9c12-4,22.5-10.7,32.3-18.5c11.3-9.1,22.3-18.6,30.2-31
		c4.6-7.2,8.5-15,12.2-22.8c4.4-9.3,9-18.6,12.1-28.3c8.3-25.9,9.9-52.9,10.8-79.9c0.1-3.3-1.1-4.5-4.3-4.3
		C331.8,454.4,328.7,454.3,325.5,454.3z M551,454.4c-5.2,0-10.3,0.1-15.5,0c-2.8-0.1-3.9,1.1-3.7,3.8c1.3,16.9,2.1,33.9,4,50.7
		c3.1,27.2,13.4,52.3,27.4,75.3c13.6,22.2,33.3,38.8,56.5,50.7c15.8,8.1,32.3,9.9,48.3,0.9c8.3-4.7,15.8-10.9,23.1-17.2
		c9.6-8.3,17.8-18,23.4-29.5c8.2-17.1,5.6-33.9-3.3-49.8c-18.6-33.3-45.3-57.6-81.5-70.5C604.4,459.8,578.1,455.2,551,454.4z
		 M362.9,519.1c48.9-18.7,97-18.6,145.4,0c-0.1-1.3-0.2-2.3-0.3-3.3c-3.5-24.9-5.7-50-3.5-75.2c0.8-8.7,5.4-13.2,14-14.1
		c2.1-0.2,4.3-0.2,6.5-0.3c7-0.2,7.6-1.1,5.3-7.6c-3.8-10.3-11.7-16.8-20.6-22.2c-19.4-11.8-40.8-16.6-63.2-17.8
		c-27.4-1.5-53.9,1.7-78.7,14.3c-10.9,5.5-21.2,12.2-26.2,24.2c-2.7,6.6-4.5,9.3,5.8,9.3c14.8,0,19.2,4.6,20,19.3
		c0,0.7,0.1,1.3,0.1,2c-0.9,18.8-1.7,37.6-2.7,56.3C364.5,509,363.6,513.9,362.9,519.1z M435.5,685.1c34.8,0,69.6-0.1,104.4,0.1
		c4.4,0,5.5-1.2,5.8-5.5c1.6-18.1-0.4-35.9-2.8-53.7c-0.6-4.9-2.1-6.2-7-6.2c-51.8,0.2-103.6,0.1-155.4,0.1c-15.8,0-31.6,0-47.5,0
		c-2.6,0-4.2,0.2-4.7,3.5c-2.7,18.8-4.8,37.6-3.1,56.7c0.4,4.2,1.8,5.1,5.7,5.1C365.9,685.1,400.7,685.1,435.5,685.1z M540.5,714.1
		c-70.2,0-139.9,0-209.7,0c0.1,1,0.1,1.4,0.2,1.9c4.9,20.7,13.2,40.1,23,58.9c1.7,3.3,3.6,4.4,7.3,4.4c46.5-0.1,93-0.4,139.5,0.1
		c9.8,0.1,15.9-1.6,20.2-11.5C528.4,750.4,536.1,733.1,540.5,714.1z M338.3,590.9c65.1,0,129.8,0,195.1,0c-2.4-4.8-4.7-9-6.7-13.4
		c-7.3-15.9-19.9-26.3-35.3-33.6c-12.1-5.7-24.9-8.3-38.1-9.2c-24.9-1.8-49.6-1.1-73.1,9C359,552.8,346.4,569.6,338.3,590.9z
		 M435.6,877.8c22.8-21.3,42.8-44.3,60.8-70.1c-41,0-80.9,0-121.8,0C392.7,833.5,412.6,856.7,435.6,877.8z"/>
	<path id="XMLID_57_" d="M484.6,285.3c4.2,2.8,9.2,4.8,12.6,8.4c9.1,9.7,8.5,23.9-0.5,33.8c-8.1,8.9-22.8,9.7-33.1,1.9
		c-9.4-7.1-12-21.9-5.6-32.5c3.6-5.9,9.6-8.9,15.7-11.6C477.2,285.3,480.9,285.3,484.6,285.3z"/>
	<path id="XMLID_56_" d="M397.6,285.3c2.2,1.1,4.4,2.2,6.6,3.3c13,6.8,16.3,23.8,8.6,35.3c-8.3,12.4-25.1,14.6-36.7,5
		c-13.8-11.3-10-34.5,6.7-41.7c1.3-0.6,2.6-1.3,3.9-1.9C390.2,285.3,393.9,285.3,397.6,285.3z"/>
</g>
</svg>
