<?xml version="1.0" encoding="utf-8"?>
<!-- Generator: Adobe Illustrator 19.0.0, SVG Export Plug-In . SVG Version: 6.00 Build 0)  -->
<svg version="1.1" id="Calque_1" xmlns="http://www.w3.org/2000/svg" xmlns:xlink="http://www.w3.org/1999/xlink" x="0px" y="0px"
	 viewBox="0 0 100 100" style="enable-background:new 0 0 100 100;" xml:space="preserve">
<style type="text/css">
	.st0{fill:#FFE708;}
</style>
<g id="XMLID_4_">
	<path id="XMLID_58_" class="st0" d="M6.9,44.9c0.2-0.7,0.3-1.4,0.5-2.1c0.7-2.5,2-4.6,3.7-6.5c1.3-1.4,2.6-2.8,4.1-4.1
		c1.8-1.6,4-2.6,6.2-3.5c3-1.2,6.2-1.8,9.4-2.2c0.6-0.1,1.1,0,1.6-0.1c0.2,0,0.5-0.2,0.5-0.4c0.3-4,2.9-6.2,6.1-7.8
		c4.4-2.3,9.2-2.7,14-2.2c3.4,0.3,6.6,1.2,9.5,3.1c2.2,1.4,3.9,3.2,4.5,5.8c0,0.1,0.1,0.3,0.1,0.4c0.2,1.2,0.2,1.1,1.3,1.2
		c4.9,0.4,9.6,1.5,13.9,4c2.5,1.4,4.6,3.4,6.5,5.6c1.2,1.5,2.3,3.1,3.2,4.8c1.8,3.8,1.5,7.4-0.7,10.9c-1.8,2.8-4.1,5.2-7.1,6.8
		c-3.4,1.8-6.8,1.8-10.2,0.1c-1.6-0.8-3-1.9-4.4-2.9c-0.1-0.1-0.3-0.2-0.5-0.3c0.1,1.1,0.1,2.2,0.2,3.2c0.2,3.5-0.3,6.9-1.3,10.2
		c-1.4,4.8-3.8,9-6.7,13.1c-2.7,3.7-5.8,7.1-9.2,10.2c-0.2,0.2-0.4,0.3-0.6,0.5c-1,0.8-1.8,0.9-2.8,0c-1.6-1.4-3.1-2.9-4.6-4.4
		c-3.2-3.3-6-6.9-8.2-10.9c-3-5.3-5-10.9-5.1-17.1c0-1.3,0.1-2.6,0.2-3.9c0-0.2,0-0.4,0-0.8c-0.8,0.6-1.5,1.2-2.3,1.7
		c-2,1.4-4.2,2.5-6.8,2.7c-3,0.3-5.7-0.8-8.1-2.6c-2.1-1.6-3.9-3.5-5.3-5.8c-0.8-1.3-1.3-2.8-1.6-4.3C7,47,7,46.8,6.9,46.5
		C6.9,46,6.9,45.4,6.9,44.9z M34.8,30.1c-3,0-6,0.4-8.9,1.1c-3.5,0.9-6.8,2.4-9.5,5c-1.9,1.9-3.7,3.9-4.8,6.3
		c-1.1,2.5-1.1,4.9,0.5,7.3c1.2,1.8,2.7,3.3,4.4,4.6c2,1.5,4.2,2.1,6.7,1.2c1.7-0.6,3.1-1.5,4.5-2.5c1.6-1.3,3.1-2.6,4.2-4.3
		c0.6-1,1.2-2.1,1.7-3.1c0.6-1.3,1.2-2.6,1.7-3.9c1.1-3.6,1.4-7.3,1.5-11c0-0.5-0.2-0.6-0.6-0.6C35.7,30.2,35.3,30.1,34.8,30.1z
		 M65.9,30.2c-0.7,0-1.4,0-2.1,0c-0.4,0-0.5,0.2-0.5,0.5c0.2,2.3,0.3,4.7,0.6,7c0.4,3.7,1.8,7.2,3.8,10.4c1.9,3.1,4.6,5.3,7.8,7
		c2.2,1.1,4.5,1.4,6.7,0.1c1.1-0.6,2.2-1.5,3.2-2.4c1.3-1.1,2.5-2.5,3.2-4.1c1.1-2.4,0.8-4.7-0.5-6.9c-2.6-4.6-6.2-7.9-11.2-9.7
		C73.3,30.9,69.7,30.3,65.9,30.2z M40,39.1c6.7-2.6,13.4-2.6,20,0c0-0.2,0-0.3,0-0.5c-0.5-3.4-0.8-6.9-0.5-10.4
		c0.1-1.2,0.7-1.8,1.9-1.9c0.3,0,0.6,0,0.9,0c1,0,1-0.2,0.7-1c-0.5-1.4-1.6-2.3-2.8-3.1c-2.7-1.6-5.6-2.3-8.7-2.5
		c-3.8-0.2-7.4,0.2-10.8,2c-1.5,0.8-2.9,1.7-3.6,3.3c-0.4,0.9-0.6,1.3,0.8,1.3c2,0,2.6,0.6,2.8,2.7c0,0.1,0,0.2,0,0.3
		c-0.1,2.6-0.2,5.2-0.4,7.8C40.2,37.7,40.1,38.4,40,39.1z M50,62c4.8,0,9.6,0,14.4,0c0.6,0,0.8-0.2,0.8-0.8c0.2-2.5-0.1-4.9-0.4-7.4
		c-0.1-0.7-0.3-0.9-1-0.9c-7.1,0-14.3,0-21.4,0c-2.2,0-4.4,0-6.5,0c-0.4,0-0.6,0-0.6,0.5c-0.4,2.6-0.7,5.2-0.4,7.8
		c0.1,0.6,0.2,0.7,0.8,0.7C40.4,62,45.2,62,50,62z M64.5,65.9c-9.7,0-19.3,0-28.9,0c0,0.1,0,0.2,0,0.3c0.7,2.9,1.8,5.5,3.2,8.1
		c0.2,0.5,0.5,0.6,1,0.6c6.4,0,12.8-0.1,19.2,0c1.4,0,2.2-0.2,2.8-1.6C62.8,71,63.9,68.6,64.5,65.9z M36.6,49c9,0,17.9,0,26.9,0
		c-0.3-0.7-0.6-1.2-0.9-1.8c-1-2.2-2.7-3.6-4.9-4.6c-1.7-0.8-3.4-1.1-5.3-1.3c-3.4-0.2-6.8-0.2-10.1,1.2C39.5,43.7,37.7,46,36.6,49z
		 M50,88.5c3.1-2.9,5.9-6.1,8.4-9.7c-5.7,0-11.2,0-16.8,0C44.1,82.4,46.8,85.6,50,88.5z"/>
	<path id="XMLID_57_" class="st0" d="M56.8,6.8C57.3,7.2,58,7.5,58.5,8c1.3,1.3,1.2,3.3-0.1,4.7c-1.1,1.2-3.1,1.3-4.6,0.3
		c-1.3-1-1.7-3-0.8-4.5c0.5-0.8,1.3-1.2,2.2-1.6C55.7,6.8,56.3,6.8,56.8,6.8z"/>
	<path id="XMLID_56_" class="st0" d="M44.8,6.8c0.3,0.2,0.6,0.3,0.9,0.5c1.8,0.9,2.2,3.3,1.2,4.9c-1.1,1.7-3.5,2-5.1,0.7
		c-1.9-1.6-1.4-4.8,0.9-5.7c0.2-0.1,0.4-0.2,0.5-0.3C43.8,6.8,44.3,6.8,44.8,6.8z"/>
</g>
</svg>
